<mxfile host="app.diagrams.net" agent="Mozilla/5.0 (Windows NT 10.0; Win64; x64) AppleWebKit/537.36 (KHTML, like Gecko) Chrome/129.0.0.0 Safari/537.36" version="24.7.17">
  <diagram id="C5RBs43oDa-KdzZeNtuy" name="Page-1">
    <mxGraphModel dx="1518" dy="768" grid="1" gridSize="10" guides="1" tooltips="1" connect="1" arrows="1" fold="1" page="1" pageScale="1" pageWidth="827" pageHeight="1169" math="0" shadow="0">
      <root>
        <mxCell id="WIyWlLk6GJQsqaUBKTNV-0" />
        <mxCell id="WIyWlLk6GJQsqaUBKTNV-1" parent="WIyWlLk6GJQsqaUBKTNV-0" />
        <mxCell id="PZh1rCnV95SnnfxZzt3c-18" value="oui" style="edgeStyle=orthogonalEdgeStyle;rounded=0;orthogonalLoop=1;jettySize=auto;html=1;" edge="1" parent="WIyWlLk6GJQsqaUBKTNV-1" source="WIyWlLk6GJQsqaUBKTNV-6" target="PZh1rCnV95SnnfxZzt3c-13">
          <mxGeometry relative="1" as="geometry" />
        </mxCell>
        <mxCell id="PZh1rCnV95SnnfxZzt3c-21" value="non" style="edgeStyle=orthogonalEdgeStyle;rounded=0;orthogonalLoop=1;jettySize=auto;html=1;" edge="1" parent="WIyWlLk6GJQsqaUBKTNV-1" source="WIyWlLk6GJQsqaUBKTNV-6" target="PZh1rCnV95SnnfxZzt3c-1">
          <mxGeometry relative="1" as="geometry" />
        </mxCell>
        <mxCell id="WIyWlLk6GJQsqaUBKTNV-6" value="&lt;div style=&quot;background-color: rgb(0, 0, 0); font-family: Consolas, &amp;quot;Courier New&amp;quot;, monospace; font-size: 14px; line-height: 19px; white-space: pre;&quot;&gt;&lt;font color=&quot;#dcdcaa&quot;&gt;longueur &lt;/font&gt;&lt;span style=&quot;color: rgb(156, 220, 254);&quot;&gt;input&lt;/span&gt;&lt;font color=&quot;#ffffff&quot;&gt; &lt;/font&gt;&lt;span style=&quot;color: rgb(212, 212, 212);&quot;&gt;=&lt;/span&gt;&lt;font color=&quot;#ffffff&quot;&gt; &lt;/font&gt;&lt;span style=&quot;color: rgb(181, 206, 168);&quot;&gt;0?&lt;/span&gt;&lt;/div&gt;" style="rhombus;whiteSpace=wrap;html=1;shadow=0;fontFamily=Helvetica;fontSize=12;align=center;strokeWidth=1;spacing=6;spacingTop=-4;" parent="WIyWlLk6GJQsqaUBKTNV-1" vertex="1">
          <mxGeometry x="340" y="235" width="210" height="80" as="geometry" />
        </mxCell>
        <mxCell id="PZh1rCnV95SnnfxZzt3c-25" value="" style="edgeStyle=orthogonalEdgeStyle;rounded=0;orthogonalLoop=1;jettySize=auto;html=1;entryX=0;entryY=0.5;entryDx=0;entryDy=0;" edge="1" parent="WIyWlLk6GJQsqaUBKTNV-1" source="WIyWlLk6GJQsqaUBKTNV-7" target="WIyWlLk6GJQsqaUBKTNV-6">
          <mxGeometry relative="1" as="geometry">
            <Array as="points">
              <mxPoint x="265" y="275" />
            </Array>
          </mxGeometry>
        </mxCell>
        <mxCell id="WIyWlLk6GJQsqaUBKTNV-7" value="&lt;div style=&quot;color: rgb(255, 255, 255); background-color: rgb(0, 0, 0); font-family: Consolas, &amp;quot;Courier New&amp;quot;, monospace; font-size: 14px; line-height: 19px; white-space: pre;&quot;&gt;&lt;span style=&quot;color: #dcdcaa;&quot;&gt;ToLower&lt;/span&gt;(&lt;span style=&quot;color: #9cdcfe;&quot;&gt;input&lt;/span&gt;)&lt;/div&gt;" style="rounded=1;whiteSpace=wrap;html=1;fontSize=12;glass=0;strokeWidth=1;shadow=0;" parent="WIyWlLk6GJQsqaUBKTNV-1" vertex="1">
          <mxGeometry x="210" y="195" width="120" height="40" as="geometry" />
        </mxCell>
        <mxCell id="PZh1rCnV95SnnfxZzt3c-30" value="oui" style="edgeStyle=orthogonalEdgeStyle;rounded=0;orthogonalLoop=1;jettySize=auto;html=1;" edge="1" parent="WIyWlLk6GJQsqaUBKTNV-1" source="WIyWlLk6GJQsqaUBKTNV-10" target="PZh1rCnV95SnnfxZzt3c-17">
          <mxGeometry relative="1" as="geometry" />
        </mxCell>
        <mxCell id="PZh1rCnV95SnnfxZzt3c-31" value="non" style="edgeStyle=orthogonalEdgeStyle;rounded=0;orthogonalLoop=1;jettySize=auto;html=1;entryX=0.5;entryY=1;entryDx=0;entryDy=0;" edge="1" parent="WIyWlLk6GJQsqaUBKTNV-1" source="WIyWlLk6GJQsqaUBKTNV-10" target="PZh1rCnV95SnnfxZzt3c-0">
          <mxGeometry relative="1" as="geometry" />
        </mxCell>
        <mxCell id="WIyWlLk6GJQsqaUBKTNV-10" value="lives &amp;lt;= 0?" style="rhombus;whiteSpace=wrap;html=1;shadow=0;fontFamily=Helvetica;fontSize=12;align=center;strokeWidth=1;spacing=6;spacingTop=-4;" parent="WIyWlLk6GJQsqaUBKTNV-1" vertex="1">
          <mxGeometry x="240" y="470" width="110" height="40" as="geometry" />
        </mxCell>
        <mxCell id="PZh1rCnV95SnnfxZzt3c-24" value="" style="edgeStyle=orthogonalEdgeStyle;rounded=0;orthogonalLoop=1;jettySize=auto;html=1;entryX=0;entryY=0.5;entryDx=0;entryDy=0;" edge="1" parent="WIyWlLk6GJQsqaUBKTNV-1" source="WIyWlLk6GJQsqaUBKTNV-12" target="WIyWlLk6GJQsqaUBKTNV-6">
          <mxGeometry relative="1" as="geometry" />
        </mxCell>
        <mxCell id="WIyWlLk6GJQsqaUBKTNV-12" value="&lt;div style=&quot;color: rgb(255, 255, 255); background-color: rgb(0, 0, 0); font-family: Consolas, &amp;quot;Courier New&amp;quot;, monospace; font-size: 14px; line-height: 19px; white-space: pre;&quot;&gt;&lt;span style=&quot;color: #dcdcaa;&quot;&gt;removeAccents&lt;/span&gt;(&lt;span style=&quot;color: #9cdcfe;&quot;&gt;input&lt;/span&gt;)&lt;/div&gt;" style="rounded=1;whiteSpace=wrap;html=1;fontSize=12;glass=0;strokeWidth=1;shadow=0;" parent="WIyWlLk6GJQsqaUBKTNV-1" vertex="1">
          <mxGeometry x="180" y="320" width="170" height="40" as="geometry" />
        </mxCell>
        <mxCell id="PZh1rCnV95SnnfxZzt3c-22" style="edgeStyle=orthogonalEdgeStyle;rounded=0;orthogonalLoop=1;jettySize=auto;html=1;entryX=0;entryY=0.5;entryDx=0;entryDy=0;" edge="1" parent="WIyWlLk6GJQsqaUBKTNV-1" source="PZh1rCnV95SnnfxZzt3c-0" target="WIyWlLk6GJQsqaUBKTNV-6">
          <mxGeometry relative="1" as="geometry" />
        </mxCell>
        <mxCell id="PZh1rCnV95SnnfxZzt3c-0" value="input" style="ellipse;whiteSpace=wrap;html=1;" vertex="1" parent="WIyWlLk6GJQsqaUBKTNV-1">
          <mxGeometry x="50" y="250" width="120" height="50" as="geometry" />
        </mxCell>
        <mxCell id="PZh1rCnV95SnnfxZzt3c-20" value="oui" style="edgeStyle=orthogonalEdgeStyle;rounded=0;orthogonalLoop=1;jettySize=auto;html=1;entryX=0.5;entryY=0;entryDx=0;entryDy=0;" edge="1" parent="WIyWlLk6GJQsqaUBKTNV-1" source="PZh1rCnV95SnnfxZzt3c-1" target="PZh1rCnV95SnnfxZzt3c-2">
          <mxGeometry relative="1" as="geometry" />
        </mxCell>
        <mxCell id="PZh1rCnV95SnnfxZzt3c-32" value="non" style="edgeStyle=orthogonalEdgeStyle;rounded=0;orthogonalLoop=1;jettySize=auto;html=1;entryX=0;entryY=0.5;entryDx=0;entryDy=0;" edge="1" parent="WIyWlLk6GJQsqaUBKTNV-1" source="PZh1rCnV95SnnfxZzt3c-1" target="PZh1rCnV95SnnfxZzt3c-34">
          <mxGeometry relative="1" as="geometry" />
        </mxCell>
        <mxCell id="PZh1rCnV95SnnfxZzt3c-1" value="&lt;div style=&quot;background-color: rgb(0, 0, 0); font-family: Consolas, &amp;quot;Courier New&amp;quot;, monospace; font-size: 14px; line-height: 19px; white-space: pre;&quot;&gt;&lt;font color=&quot;#dcdcaa&quot;&gt;longueur &lt;/font&gt;&lt;span style=&quot;color: rgb(156, 220, 254);&quot;&gt;input&lt;/span&gt;&lt;font color=&quot;#ffffff&quot;&gt; &lt;/font&gt;&lt;font color=&quot;#d4d4d4&quot;&gt;&amp;gt;&lt;/font&gt;&lt;font color=&quot;#ffffff&quot;&gt; 1&lt;/font&gt;&lt;span style=&quot;color: rgb(181, 206, 168);&quot;&gt;?&lt;/span&gt;&lt;/div&gt;" style="rhombus;whiteSpace=wrap;html=1;shadow=0;fontFamily=Helvetica;fontSize=12;align=center;strokeWidth=1;spacing=6;spacingTop=-4;" vertex="1" parent="WIyWlLk6GJQsqaUBKTNV-1">
          <mxGeometry x="600" y="235" width="210" height="80" as="geometry" />
        </mxCell>
        <mxCell id="PZh1rCnV95SnnfxZzt3c-19" value="oui" style="edgeStyle=orthogonalEdgeStyle;rounded=0;orthogonalLoop=1;jettySize=auto;html=1;" edge="1" parent="WIyWlLk6GJQsqaUBKTNV-1" source="PZh1rCnV95SnnfxZzt3c-2" target="PZh1rCnV95SnnfxZzt3c-16">
          <mxGeometry relative="1" as="geometry" />
        </mxCell>
        <mxCell id="PZh1rCnV95SnnfxZzt3c-27" value="non" style="edgeStyle=orthogonalEdgeStyle;rounded=0;orthogonalLoop=1;jettySize=auto;html=1;" edge="1" parent="WIyWlLk6GJQsqaUBKTNV-1" source="PZh1rCnV95SnnfxZzt3c-2" target="PZh1rCnV95SnnfxZzt3c-15">
          <mxGeometry relative="1" as="geometry" />
        </mxCell>
        <mxCell id="PZh1rCnV95SnnfxZzt3c-2" value="&lt;div style=&quot;background-color: rgb(0, 0, 0); font-family: Consolas, &amp;quot;Courier New&amp;quot;, monospace; font-size: 14px; line-height: 19px; white-space: pre;&quot;&gt;&lt;font color=&quot;#dcdcaa&quot;&gt;input = mot&lt;/font&gt;&lt;/div&gt;" style="rhombus;whiteSpace=wrap;html=1;shadow=0;fontFamily=Helvetica;fontSize=12;align=center;strokeWidth=1;spacing=6;spacingTop=-4;" vertex="1" parent="WIyWlLk6GJQsqaUBKTNV-1">
          <mxGeometry x="630" y="370" width="150" height="60" as="geometry" />
        </mxCell>
        <mxCell id="PZh1rCnV95SnnfxZzt3c-43" value="non" style="edgeStyle=orthogonalEdgeStyle;rounded=0;orthogonalLoop=1;jettySize=auto;html=1;entryX=1;entryY=0.5;entryDx=0;entryDy=0;" edge="1" parent="WIyWlLk6GJQsqaUBKTNV-1" source="PZh1rCnV95SnnfxZzt3c-3" target="WIyWlLk6GJQsqaUBKTNV-10">
          <mxGeometry relative="1" as="geometry">
            <Array as="points">
              <mxPoint x="430" y="620" />
              <mxPoint x="430" y="490" />
            </Array>
          </mxGeometry>
        </mxCell>
        <mxCell id="PZh1rCnV95SnnfxZzt3c-45" value="oui" style="edgeStyle=orthogonalEdgeStyle;rounded=0;orthogonalLoop=1;jettySize=auto;html=1;" edge="1" parent="WIyWlLk6GJQsqaUBKTNV-1" source="PZh1rCnV95SnnfxZzt3c-3" target="PZh1rCnV95SnnfxZzt3c-44">
          <mxGeometry relative="1" as="geometry" />
        </mxCell>
        <mxCell id="PZh1rCnV95SnnfxZzt3c-3" value="&lt;div style=&quot;background-color: rgb(0, 0, 0); font-family: Consolas, &amp;quot;Courier New&amp;quot;, monospace; font-size: 14px; line-height: 19px; white-space: pre;&quot;&gt;&lt;font color=&quot;#dcdcaa&quot;&gt;liste des input = mot?&lt;/font&gt;&lt;/div&gt;" style="rhombus;whiteSpace=wrap;html=1;shadow=0;fontFamily=Helvetica;fontSize=12;align=center;strokeWidth=1;spacing=6;spacingTop=-4;" vertex="1" parent="WIyWlLk6GJQsqaUBKTNV-1">
          <mxGeometry x="880" y="580" width="210" height="80" as="geometry" />
        </mxCell>
        <mxCell id="PZh1rCnV95SnnfxZzt3c-38" value="non" style="edgeStyle=orthogonalEdgeStyle;rounded=0;orthogonalLoop=1;jettySize=auto;html=1;entryX=0.5;entryY=0;entryDx=0;entryDy=0;" edge="1" parent="WIyWlLk6GJQsqaUBKTNV-1" source="PZh1rCnV95SnnfxZzt3c-5" target="PZh1rCnV95SnnfxZzt3c-12">
          <mxGeometry relative="1" as="geometry">
            <mxPoint x="1310" y="580" as="targetPoint" />
          </mxGeometry>
        </mxCell>
        <mxCell id="PZh1rCnV95SnnfxZzt3c-42" value="oui" style="edgeStyle=orthogonalEdgeStyle;rounded=0;orthogonalLoop=1;jettySize=auto;html=1;entryX=1;entryY=0.5;entryDx=0;entryDy=0;" edge="1" parent="WIyWlLk6GJQsqaUBKTNV-1" source="PZh1rCnV95SnnfxZzt3c-5" target="PZh1rCnV95SnnfxZzt3c-3">
          <mxGeometry relative="1" as="geometry">
            <Array as="points">
              <mxPoint x="1470" y="400" />
              <mxPoint x="1470" y="620" />
            </Array>
          </mxGeometry>
        </mxCell>
        <mxCell id="PZh1rCnV95SnnfxZzt3c-5" value="&lt;div style=&quot;background-color: rgb(0, 0, 0); font-family: Consolas, &amp;quot;Courier New&amp;quot;, monospace; font-size: 14px; line-height: 19px; white-space: pre;&quot;&gt;&lt;font color=&quot;#dcdcaa&quot;&gt;input est une lettre &lt;/font&gt;&lt;/div&gt;&lt;div style=&quot;background-color: rgb(0, 0, 0); font-family: Consolas, &amp;quot;Courier New&amp;quot;, monospace; font-size: 14px; line-height: 19px; white-space: pre;&quot;&gt;&lt;font color=&quot;#dcdcaa&quot;&gt;qui apparait dans le mot?&lt;/font&gt;&lt;/div&gt;" style="rhombus;whiteSpace=wrap;html=1;shadow=0;fontFamily=Helvetica;fontSize=12;align=center;strokeWidth=1;spacing=6;spacingTop=-4;" vertex="1" parent="WIyWlLk6GJQsqaUBKTNV-1">
          <mxGeometry x="1150" y="340" width="290" height="120" as="geometry" />
        </mxCell>
        <mxCell id="PZh1rCnV95SnnfxZzt3c-39" style="edgeStyle=orthogonalEdgeStyle;rounded=0;orthogonalLoop=1;jettySize=auto;html=1;entryX=1;entryY=0.5;entryDx=0;entryDy=0;" edge="1" parent="WIyWlLk6GJQsqaUBKTNV-1" source="PZh1rCnV95SnnfxZzt3c-12" target="WIyWlLk6GJQsqaUBKTNV-10">
          <mxGeometry relative="1" as="geometry">
            <Array as="points">
              <mxPoint x="440" y="560" />
              <mxPoint x="440" y="490" />
            </Array>
          </mxGeometry>
        </mxCell>
        <mxCell id="PZh1rCnV95SnnfxZzt3c-12" value="lives - 1" style="rounded=0;whiteSpace=wrap;html=1;" vertex="1" parent="WIyWlLk6GJQsqaUBKTNV-1">
          <mxGeometry x="1260" y="550" width="70" height="20" as="geometry" />
        </mxCell>
        <mxCell id="PZh1rCnV95SnnfxZzt3c-29" style="edgeStyle=orthogonalEdgeStyle;rounded=0;orthogonalLoop=1;jettySize=auto;html=1;entryX=1;entryY=0.5;entryDx=0;entryDy=0;" edge="1" parent="WIyWlLk6GJQsqaUBKTNV-1" source="PZh1rCnV95SnnfxZzt3c-13" target="WIyWlLk6GJQsqaUBKTNV-10">
          <mxGeometry relative="1" as="geometry">
            <mxPoint x="330" y="410" as="targetPoint" />
            <Array as="points">
              <mxPoint x="445" y="490" />
            </Array>
          </mxGeometry>
        </mxCell>
        <mxCell id="PZh1rCnV95SnnfxZzt3c-13" value="lives - 3" style="rounded=0;whiteSpace=wrap;html=1;" vertex="1" parent="WIyWlLk6GJQsqaUBKTNV-1">
          <mxGeometry x="410" y="350" width="70" height="20" as="geometry" />
        </mxCell>
        <mxCell id="PZh1rCnV95SnnfxZzt3c-28" style="edgeStyle=orthogonalEdgeStyle;rounded=0;orthogonalLoop=1;jettySize=auto;html=1;entryX=1;entryY=0.5;entryDx=0;entryDy=0;" edge="1" parent="WIyWlLk6GJQsqaUBKTNV-1" source="PZh1rCnV95SnnfxZzt3c-15" target="WIyWlLk6GJQsqaUBKTNV-10">
          <mxGeometry relative="1" as="geometry">
            <Array as="points">
              <mxPoint x="460" y="400" />
              <mxPoint x="460" y="490" />
            </Array>
          </mxGeometry>
        </mxCell>
        <mxCell id="PZh1rCnV95SnnfxZzt3c-15" value="lives - 2" style="rounded=0;whiteSpace=wrap;html=1;" vertex="1" parent="WIyWlLk6GJQsqaUBKTNV-1">
          <mxGeometry x="500" y="390" width="70" height="20" as="geometry" />
        </mxCell>
        <mxCell id="PZh1rCnV95SnnfxZzt3c-16" value="gagné et fin" style="ellipse;whiteSpace=wrap;html=1;" vertex="1" parent="WIyWlLk6GJQsqaUBKTNV-1">
          <mxGeometry x="645" y="480" width="120" height="40" as="geometry" />
        </mxCell>
        <mxCell id="PZh1rCnV95SnnfxZzt3c-17" value="perdu et fin" style="ellipse;whiteSpace=wrap;html=1;" vertex="1" parent="WIyWlLk6GJQsqaUBKTNV-1">
          <mxGeometry x="235" y="590" width="120" height="40" as="geometry" />
        </mxCell>
        <mxCell id="PZh1rCnV95SnnfxZzt3c-36" value="oui" style="edgeStyle=orthogonalEdgeStyle;rounded=0;orthogonalLoop=1;jettySize=auto;html=1;entryX=1;entryY=0.5;entryDx=0;entryDy=0;" edge="1" parent="WIyWlLk6GJQsqaUBKTNV-1" source="PZh1rCnV95SnnfxZzt3c-33" target="WIyWlLk6GJQsqaUBKTNV-10">
          <mxGeometry relative="1" as="geometry">
            <Array as="points">
              <mxPoint x="985" y="540" />
              <mxPoint x="450" y="540" />
              <mxPoint x="450" y="490" />
            </Array>
          </mxGeometry>
        </mxCell>
        <mxCell id="PZh1rCnV95SnnfxZzt3c-37" value="non" style="edgeStyle=orthogonalEdgeStyle;rounded=0;orthogonalLoop=1;jettySize=auto;html=1;" edge="1" parent="WIyWlLk6GJQsqaUBKTNV-1" source="PZh1rCnV95SnnfxZzt3c-33" target="PZh1rCnV95SnnfxZzt3c-5">
          <mxGeometry relative="1" as="geometry" />
        </mxCell>
        <mxCell id="PZh1rCnV95SnnfxZzt3c-33" value="&lt;div style=&quot;background-color: rgb(0, 0, 0); font-family: Consolas, &amp;quot;Courier New&amp;quot;, monospace; font-size: 14px; line-height: 19px; white-space: pre;&quot;&gt;&lt;font color=&quot;#dcdcaa&quot;&gt;input déjà proposé?&lt;/font&gt;&lt;/div&gt;" style="rhombus;whiteSpace=wrap;html=1;shadow=0;fontFamily=Helvetica;fontSize=12;align=center;strokeWidth=1;spacing=6;spacingTop=-4;" vertex="1" parent="WIyWlLk6GJQsqaUBKTNV-1">
          <mxGeometry x="880" y="365" width="210" height="70" as="geometry" />
        </mxCell>
        <mxCell id="PZh1rCnV95SnnfxZzt3c-35" value="" style="edgeStyle=orthogonalEdgeStyle;rounded=0;orthogonalLoop=1;jettySize=auto;html=1;" edge="1" parent="WIyWlLk6GJQsqaUBKTNV-1" source="PZh1rCnV95SnnfxZzt3c-34" target="PZh1rCnV95SnnfxZzt3c-33">
          <mxGeometry relative="1" as="geometry" />
        </mxCell>
        <mxCell id="PZh1rCnV95SnnfxZzt3c-34" value="&lt;div style=&quot;color: rgb(255, 255, 255); background-color: rgb(0, 0, 0); font-family: Consolas, &amp;quot;Courier New&amp;quot;, monospace; font-size: 14px; line-height: 19px; white-space: pre;&quot;&gt;&lt;span style=&quot;color: #9cdcfe;&quot;&gt;longueur&lt;/span&gt; &lt;span style=&quot;color: #9cdcfe;&quot;&gt;input&lt;/span&gt; &lt;span style=&quot;color: #d4d4d4;&quot;&gt;=&lt;/span&gt; &lt;span style=&quot;color: #b5cea8;&quot;&gt;1&lt;/span&gt;&lt;/div&gt;" style="rounded=0;whiteSpace=wrap;html=1;" vertex="1" parent="WIyWlLk6GJQsqaUBKTNV-1">
          <mxGeometry x="905" y="262.5" width="160" height="25" as="geometry" />
        </mxCell>
        <mxCell id="PZh1rCnV95SnnfxZzt3c-44" value="gagné et fin" style="ellipse;whiteSpace=wrap;html=1;" vertex="1" parent="WIyWlLk6GJQsqaUBKTNV-1">
          <mxGeometry x="925" y="700" width="120" height="40" as="geometry" />
        </mxCell>
      </root>
    </mxGraphModel>
  </diagram>
</mxfile>
